<?xml version="1.0" encoding="utf-8"?>
<!DOCTYPE svg PUBLIC "-//W3C//DTD SVG 1.1//EN" "http://www.w3.org/Graphics/SVG/1.1/DTD/svg11.dtd">
<svg version="1.1" id="Layer_1" xmlns="http://www.w3.org/2000/svg" xmlns:xlink="http://www.w3.org/1999/xlink" x="0px" y="0px"
	 viewBox="-14.5885 221.1206 1949.177 1206.7588" enable-background="new -14.5885 221.1206 1949.177 1206.7588"
	 xml:space="preserve">
<g id="_x23_000000ff">
	<path stroke="#000000" stroke-width="0.0938" d="M1367.2053,249.4758c13.2799-2.23,27.76-0.81,39.2899,6.57
		c7.9701,5.05,13.5,13.68,14.6101,23.07c2.0699,16.88-1.26,33.86-5.53,50.15c-5.37,20.16-12.36,39.95-15.5901,60.62
		c-6.25,6.47-11.8999,13.48-18.09,19.99c-4.0499,3.69-8.4399,6.98-12.64,10.5c-11.25-9.1-22.73-17.98-33.08-28.12
		c-1.89-3.85-3.16-7.97-4.87-11.9c-1.02-1.93-0.54-4.15-0.55-6.22c0.67-22.83-6.1-45.07-6.2-67.86
		c-0.0601-12.7,2.54-25.67,9.08-36.67C1340.8652,258.0558,1354.1753,251.8258,1367.2053,249.4758z"/>
	<path stroke="#000000" stroke-width="0.0938" d="M228.0053,271.9158c18.07-4.58,38.46,0.65,51.7,13.88
		c9.62,9.43,14.54,23.08,14.07,36.46c0.07,4.35-1.07,8.58-1.39,12.9c0.42,5.4,9.68,3.1,9.35,9.02c-0.22,7.75-0.24,16.12-4.65,22.84
		c-3.02,4.75-8.77,6.87-14.2,6.94c-3.73,13.72-6.7,27.91-5.85,42.21c0.29,5.54,1.7,10.97,3.93,16.04
		c-7.47,13.71-16.8,26.74-29.21,36.43c-2.43,1.89-4.98,3.64-7.33,5.64c2.3,2.05,3.66,4.87,5.62,7.21c2.67,3.29,5.58,6.5,7.19,10.49
		c-1.66,2.78-3.67,5.37-6.44,7.12c-0.41,5.59,2.82,10.45,6.02,14.72c3.96,6.28,1.06,13.75,0.82,20.55
		c2.24-8.63,1.95-17.88,5.57-26.13c4.63-14.32,11.92-27.65,16.24-42.1c2.53-7.77,4.14-15.81,5.15-23.91
		c0.02-1.37,0.81-2.49,1.54-3.57c4.99,2.47,7.03,8.12,11.32,11.39c6.15,3.56,13.72,3.46,19.79,7.25
		c16.78,5.82,34.8,8.66,50.36,17.66c6.1,3.63,11.68,8.53,15.01,14.9c3.6,6.54,4.17,14.13,5.63,21.32
		c9.51,52.12,10.06,105.35,8.07,158.13c-0.71,26.62-1.9,53.24-1.57,79.89c0.03,19.6801,1.29,39.34,2.99,58.94
		c1.48,19.01,2.21,38.42-2.35,57.1c-0.54-0.11-1.62-0.32-2.16-0.42c-0.59-2.55,0.66-6.73-2.41-7.92
		c-9.53-2.99-19.64-3.01-29.54-3.28c-3.87-0.15-7.63,0.99-11.46,1.41c-2.73,3.9-1.04,8.4,0.13,12.5c-2.9-2.2-8.47-1.96-8.97-6.38
		c-1.36-23.71,0.78-47.48-0.14-71.2c-3.12,2.61-5.49,6.19-5.91,10.32c-1.13,9.4,2.06,18.6,2.38,27.97
		c0.91,20.63,1.47,41.34,0.28,61.98c-0.66,11.49-2.42,22.96-5.97,33.91c-4.2,83-11.18,165.9299-11.2,249.0899
		c0.07,15.72,3.12,31.24,3.62,46.9401c0.26,14.09-1.33,29.37,6.3,41.99c2.7,3.39,1.4,8.8199-2.38,10.85
		c-3.39,2.2999-8.69,3.5-9.36,8.22c1.78,19.4,11.11,36.87,19.76,53.96c7.91,15.51,13.73,32.49,13.84,50.0601
		c-1.48,2.01-1.41,5.0599-3.85,6.3099c-8.04,6.02-18.91,6.76-28.31,3.9301c-15.1-4.62-28.07-15.46-36-29.04
		c-2.22-3.7-5.5-6.76-7.05-10.84c-1.89-6.1899-0.47-12.99-3.1-19.01c-3.68-8.42-11-14.2999-16.98-21
		c-2.82-3.24-5.69-6.84-6.23-11.25c-1.85-10.49,0.57-21.11,4.08-30.99c2.08-6.65,5.18-13.21,5.36-20.26
		c-3.25-9.26-2.95-19.21-2.49-28.86c0.85-13.03,2.59-26,2.73-39.0601c-0.44-23.48-4.55-46.6499-7.46-69.8899
		c-6.03-49.64-15.76-98.8799-30-146.84c-8.98,24.2-14.45,49.52-19.48,74.7899c-8.46,43.87-14.55,88.29-26.78,131.35
		c-6.46,23.9401-13.54,47.7101-20.2,71.59c-5.37,18.7201-9.9,37.77-17.52,55.7401c-5.43,13.0199-12.79,25.4399-22.87,35.4199
		c1.29,16.61-5.27,33.78-18.01,44.66c-9.81,8.67-23.8,13.1-36.66,9.6899c-5.37-1.51-10.8-3.8099-14.89-7.6499
		c-2.5-9.79-1.3-20.2201,2.03-29.66c5.86-17.2001,18.24-31.6801,21.86-49.71c2.26-10.16-1.91-20.2201-1.34-30.4
		c0.89-23.67,6.58-46.76,10.29-70.0601c7.02-40.87,14.21-81.72,19.54-122.84c1.58-11.37,1.51-22.9401,3.8-34.21
		c1.41-7.02,4.85-13.37,7.21-20.0801c3.01-7.9,3.25-16.4799,3.31-24.8199c0.18-17.4501-2.99-34.67-4.66-51.99
		c-1.9-16.63-1.96-33.5601,1.59-49.98c-1.96-7.74-10.36-11.28-13.6-18.31c-2.22-4.58-1.75-9.85-1.22-14.74
		c2.28-16.18,7.51-31.81,9.22-48.08c3.23-32.77,5.85-65.72,12.92-97.94c-8.86,17.72-10.09,37.86-12.62,57.18
		c-1.7,13.28-3.41,26.73-8.12,39.35c-6.63-4.57-13.97-9.64-22.38-9.31c-3.35,0.05-6.63-0.72-9.96-0.9c-4.84,1-9.34,3.17-13.9,5.02
		c-4.14,1.68-8.28,3.64-11.42,6.92c0.9-24.85,2.73-49.67,5.55-74.38c1.76-15.76,9.32-30.19,11.14-45.93
		c1.42-9.84-6.03-18.23-5.49-27.97c0.73-9.47,9.01-16.34,9.64-25.81c2.46-21.55-5.34-43.1801-0.91-64.63
		c4.17-16.91,12.88-32.23,18.11-48.8c6.08-19.84,8.35-40.65,14.49-60.47c11.16-6.69,24.3-8.84,36.74-12.14
		c11.88-3.23,24.03-5.36,35.93-8.52c6.72-1.9,13.84-3.76,19.09-8.65c5.77-5.27,10.67-12.36,18.81-14.08
		c-2.9,23.72,2.7,47.29,8.29,70.18c1.1,2.96-0.17,6.05,0.34,9.09c2.36,16.52,3.46,33.29,8.25,49.36
		c0.14-13.24,0.27-26.49,0.16-39.72c1.63-6.89,7.48-11.66,10.59-17.85c-3.03-2.53-6.56-4.39-9.6-6.91
		c2.99-4.99,6.9-9.35,10.27-14.08c1.6-2.01,2.91-4.89,5.92-4.81c-7.62-14.61-24.5-22.05-30.71-37.63
		c-5.78-13.82,3.43-28.48-0.41-42.58c-1.84-6.52-5.72-12.31-6.94-19.04c-4.14-0.1-8.19-1.85-10.79-5.14
		c-5.82-7.15-6.79-16.97-5.84-25.83c0.19-1.89,1.4-4.28,3.64-4.03c2.48,0.28,4.93,0.81,7.41,1.13c-2.7-14.52-2.55-30.18,3.95-43.73
		C202.5353,283.9658,214.7953,275.2758,228.0053,271.9158 M327.9053,700.2958c-0.35,5.64-0.52,11.3-0.27,16.96
		c0.76,20.24,3.42,40.8,11.35,59.59C337.0953,751.1258,333.9353,725.4058,327.9053,700.2958z"/>
	<path stroke="#000000" stroke-width="0.0938" d="M956.1853,297.1058c11.42-1.69,23.15-0.66,34.36,1.93
		c10.71,3.45,18.68,12.54,23.39,22.47c6.83,14.54,8.64,30.84,8.98,46.72c0.21,16.83-1.59,33.64-4.43,50.2
		c-0.25,2.58-2.75,3.96-4.5,5.5c-8.98,6.7-18.69,12.31-27.92,18.63c-0.45,2.11-1.75,3.85-2.83,5.67
		c-7.55,12.18-14.89,24.5-22.45,36.67c-12.75-15.12-25.42-30.31-38.06-45.51c1.68-3.1,3.27-6.66,2.4-10.27
		c-0.73-4.4-3.65-7.99-6.63-11.13c-1.03-1.22-3.11-0.8-3.83,0.54c-3.56,4.61-4.99,10.39-7.22,15.68
		c-9.14-2.76-8.78-15.56-17.97-18.18c1.83-18.81,4.41-37.63,9.4-55.89c4.55-16.15,11.11-32.28,22.61-44.79
		C930.4853,305.5058,942.9553,298.9158,956.1853,297.1058z"/>
	<path stroke="#000000" stroke-width="0.0938" d="M604.5853,307.5358c9.51-5.07,21.1-5.51,31.16-1.83
		c15.47,5.58,28.27,17.1,37.43,30.55c5.86,8.91,10.34,19.16,10.59,29.97c0.33,7.28-4.1899,13.42-6.43,20.06
		c-5.72,16.91-14.91,32.39-25.3,46.82c-2.27,3.4-5.06,6.47-6.97,10.1c-0.44,3.54,0.59,7.33-1.03,10.68
		c-1.23,4.05-4.88,6.51-7.51,9.6c-1.42,1.75-3.57,2.54-5.53,3.48c-10.1-7.53-20.12-15.18-30.72-21.97
		c-4.71-2.76-8.71-6.47-12.98-9.81c-3.66-2.87-6.34-6.76-10.04-9.58c-0.81-1.45-1.05-3.13-1.58-4.68
		c-3.74-12.4-12.82-22.65-15.05-35.58c-1.47-8.83-0.99-18.37,3.22-26.44c3.54-7.02,7.72-13.69,11.66-20.49
		C582.8753,326.3058,591.6953,314.1758,604.5853,307.5358z"/>
	<path stroke="#000000" stroke-width="0.0938" d="M1697.1053,304.0458c10.37-1.86,21.47-2.13,31.37,1.94
		c7.63,3.04,13.99,8.67,18.8199,15.24c8.04,10.77,13.1,23.36,20.21,34.71c3.87,5.72,10.0601,9.36,14.04,14.99
		c2.14,3.03,2.91,7.31,1.03,10.65c-1.53,2.4-3.91,4.2-5.0701,6.83c-1.84,5.07-0.33,11.38,4.27,14.48c5.21,4.05,13.09,6.4,14.98,13.4
		c-2.09,20.2-3.5599,41.86,5.91,60.57c1.2,3.26,4.83,4.23,7.8101,5.22c5.45,1.67,11.9099,2.41,15.72,7.17
		c4.5499,6.26,6.86,13.78,9.27,21.05c5.38,17.71,9.08,35.87,12.37,54.07c2.4399,12.78,5.97,25.32,8.98,37.98
		c3.21,13.44,3.09,27.43,6.53,40.83c2.2699,8.47,7.11,15.93,9.87,24.22c7.46,21.71,13.1699,44.1,15.88,66.93
		c2.4199,18.9901,1.33,38.38-2.62,57.09c-2.1001,8.76-4.64,18.16-11.4301,24.52c-2.74,2.71-6.39,4.22-10.15,4.77
		c-2.0599,7.31-9,11.64-11.73,18.54c-3.3,11.8,0.13,24.01-0.36,36.01c-0.97,26.64-1.6,53.28-2.29,79.93
		c-0.48,23.69-1.64,47.3599-2.27,71.0399c-0.5,33.35,0.37,66.73-1.3999,100.0601c-5.4301,74.83-9.4301,149.98-22.5,223.98
		c-1.9301,9.73-4.04,19.58-8.4,28.5699c-1.8301,4.04-5,7.41-9.0801,9.22c-0.74,2.79-1.2999,5.62-2.34,8.3301
		c-10.36,2.5599-21.28,2.83-31.7999,1.15c-3.52-0.3501-6.2401-3.05-7.62-6.14c-2.26-5.01-2.4701-10.8201-5.5901-15.4601
		c-3.1799-4.9099-7.4299-9.5399-8.11-15.6c-2.4399-16.35-0.25-32.91,1.83-49.17c6.3201-44.4099,6.16-89.3999,11.13-133.9399
		c2.1101-17.62,4.5801-35.21,5.26-52.97c1.66-32.3301,0.02-64.7001-1.8999-96.99c-1.9901-43.9-14.77-86.28-27.0701-128.16
		c-5.4,6.28-8.52,14.07-10.74,21.96c-12.22,41.68-21.36,84.18-32.64,126.1199c-5.54,20.8101-11.9299,41.39-17.59,62.17
		c-12.24,44.08-23.48,88.4301-34.3201,132.88c-5.35,22.5-11.21,44.89-18.12,66.97c-4.7799,15.78-7.0199,32.35-13.5499,47.5801
		c-3.7001,8.74-9.67,16.75-17.99,21.5499c-1.9401,5.6901-2.0701,12.37-6.3201,16.99c-10.5299,2.47-21.9199,3.39-32.37,0.0701
		c-2.9399-0.74-5.01-3.14-6.28-5.75c-2.3999-4.74-2.8199-10.15-4.72-15.0701c-2-5.47-5.2899-10.51-6.14-16.35
		c-0.8199-6.48,1.76-12.66,3.02-18.9c2.34-10.61,0.54-21.63,2.73-32.26c3.55-19.8099,9.2101-39.1599,14.05-58.6699
		c5.92-23.9501,10.62-48.17,15.92-72.25c4.37-20.78,10.37-41.15,15.2799-61.8c5.39-21.91,7.13-44.67,14.5-66.09
		c2.8201-8.23,7.0801-16.01,8.63-24.6299c1.2001-9.7001-3.5699-18.66-6.46-27.62c-6.09-19.39-12.84-38.5601-18.84-57.97
		c-2.4701-7.92-5.7101-15.68-6.79-23.95c-0.88-6.86,0.25-13.89,3.05-20.2c-3.26-5.0699-6.7201-10.44-6.88-16.67
		c-0.23-7.8,2.01-15.37,3.09-23.04c3.9399-24.12,11.13-48.24,8.67-72.9c-0.8101-11.34-2.13-22.66-2.17-34.04
		c-0.09-54.02,0.5699-108.08,4.08-162c0.98-16.62,1.17-33.3,3.15-49.85c1.02-7.8199,2.13-15.79,5.42-23.03
		c2.5499-5.75,8.48-8.8,13.95-11.21c8.78-3.96,18.4501-6.25,26.4-11.86c1.5-5.5,0.77-11.35-0.03-16.92
		c-2.24-13.14-8.59-25.09-11.78-37.97c-2.5299-9.58-2.95-19.74-0.7999-29.43c2.64-14.79,15.5-24.79,19.98-38.84
		c1.74-5.73,3.9301-11.31,6.42-16.76c5.4199-12.18,11.2799-24.62,20.99-34.03
		C1681.3353,309.5258,1688.9353,305.4458,1697.1053,304.0458 M1679.3153,482.4058c0.4399,7.62,1.66,15.17,1.65,22.82
		c0.13,13.09,2.23,26.04,3.2899,39.07c1.2001,13.66,3.0801,27.27,4.6901,40.89c2.63,5.63,5.87,10.98,8.65,16.55
		c5.48,11.16,12.7899,21.27,19.1499,31.92c3.66,6.33,8.0701,12.17,12.0901,18.28c1.25-6.59,1.88-13.29,3.3999-19.82
		c2.66-8.27,5.03-16.63,7.5901-24.93c1.86-6.27,4.74-12.31,5.37-18.89c1.59-10.36,2.83-20.84,6.14-30.83
		c2.25-6.89,3.1899-14.1,4.11-21.26c0.21-8.34-0.25-16.7,0.46-25.03c1-9.92-1.67-19.67-2.59-29.5
		c-3.74,5.04-7.4301,10.13-12.46,13.97c-8.54,2.86-17.5601,3.69-26.4701,4.44c-5.0299-0.41-10.02-1.26-14.96-2.21
		c-3.35-1.47-6.55-3.3-9.67-5.17C1686.0853,489.4658,1682.8253,485.8058,1679.3153,482.4058 M1802.8652,606.6758
		c-2.09,6.7-2.0499,13.74-2.48,20.67c-1.5299,6.54-2.0699,13.25-2.65,19.93c0.2401,5.45,0.9901,10.93,2.4,16.22
		c3.04,7.94,6.8,15.59,10.51,23.24c8.72,16.51,14.15,34.46,21.34,51.64c4.9901,11.86,7.8501,24.53,13.65,36.0699
		c2.63-2.35,4.9701-5.0099,7.24-7.71c1.7001-4.39,3.0601-9.29,1.6001-13.94c-2.67-16.24-10.4801-30.9-16.9901-45.83
		c-4.8899-13.49-6.7599-27.84-11.33-41.42c-1.5-5.28-4.46-10-5.6799-15.37c-1.5901-6.2-4.8501-11.85-6.02-18.17
		c-1.3301-5.08-2.0801-10.32-3.6901-15.32c-1.71-3.47-3.39-6.97-4.22-10.77
		C1805.2953,606.1558,1804.0653,606.4158,1802.8652,606.6758 M1640.1152,634.5658c-0.5599,7.19-0.84,14.4-1.2,21.6
		c-0.85,22.71-2.46,45.39-3.78,68.08c-1.37,25.7-5.1699,51.22-6.24,76.94c-0.59,14.0099-1.48,28-2.2,42.0099
		c0.1,12.01,0.33,24.22-2.9,35.9c-1.48,6.02,0.29,13.02-3.76,18.21c0.53,1.8,0.8201,3.72,1.75,5.39c1.77,1.59,3.79,2.88,5.7,4.33
		c0.1101-5.65-0.33-11.35,0.66-16.94c1.9501-13.98,3.5801-28.04,6.73-41.8c1.5901-3.62,4.05-6.77,6.01-10.19
		c-1.7799-0.02-3.5-0.01-5.23,0.01c1.51-10.63,3.08-21.25,4.54-31.88c2.1799-12.87,2.28-25.95,3.39-38.92
		c1.3099-24.46,3.45-48.91,8.0299-73c0.5601-7.34,0.5901-14.83-1.1399-22.03
		C1647.4553,659.5757,1642.6353,647.3958,1640.1152,634.5658 M1717.6953,819.7358c10.23-0.27,20.47-0.43,30.7-0.92
		c10.28-0.91,20.5801-1.83,30.86-2.85c-13.74-28.34-27.14-56.85-40.89-85.2
		C1731.6853,760.4758,1724.5453,790.0757,1717.6953,819.7358z"/>
	<path stroke="#000000" stroke-width="0.0938" d="M1294.4053,414.5758c10.6-6.28,21.47-12.09,32.28-18
		c4.01,9.9,7.7,19.95,12.58,29.47c4.66,8.78,7.15,18.46,10.78,27.66c1.4301,3.18,3.17,6.21,4.5699,9.41
		c2.4901-7.57,4.89-15.17,7.1901-22.8c-1.72-1.15-3.51-2.2-5.02-3.59c-0.97-1.64-1.59-3.43-2.3099-5.17
		c4.8899-3.8,9.9099-7.42,14.85-11.17c3.4,3.26,6.86,6.47,10.35,9.65c0.02,2.24,0.01,4.48,0.03,6.72
		c-1.9701,0.49-3.9301,0.98-5.89,1.44c2.7999,9.15,4.74,18.54,6.5,27.94c0.41,7.3701-0.13,14.77,0.38,22.15
		c2.34-13.8,5.41-27.46,9.03-40.97c2.09-9.57,5.2899-18.81,8.61-28.01c2.01-6.53,5.36-12.78,5.61-19.74
		c17.65,6.23,31,20.15,47.73,28.15c15.29,6.83,32.42,9.98,46.13,20.08c5.3,3.83,9.47,9.24,11.37,15.54
		c8.15,24.07,8.71,49.74,9.74,74.88c0.87,31.35,0.89,62.74-1,94.05c-0.78,9.09-0.79,18.46-4.1801,27.07
		c-5.99,16.05-17.72,28.87-27.7999,42.41c-9.86,13.33-20.09,26.41-29.15,40.31c2.71,8.97,10.98,14.21,16.74,21.06
		c2.1901,2.61,4.21,6.18,3.21,9.67c-5.45,7.63-6.2799,17.37-6.36,26.47c-0.3199,17.47,2.3,34.83,5.61,51.93
		c4.14,18.77,5.63,37.97,8.76,56.91c7.3301,50.84,11.67,102.04,16.4501,153.17c1.1799,13.01,5.1799,25.76,4.4299,38.9299
		c-2.33,50.37-9.6699,100.5-9.08,151.01c0.33,18.41,1.47,36.87,4.8199,55c0.42,1.47-0.1399,2.92-0.6599,4.3
		c-2.52,0.87-5.3,1.1899-7.5901,2.5699c-1.33,0.6901-0.22,2.2101,0.2001,3.13c9.72,17.6,24.49,31.53,36.62,47.38
		c6.97,9.17,13.17,19.4,15.17,30.92c-16.5,7.34-35.5601,5.26-52.04-1.01c-8.8101-3.4-17.35-7.6-25.27-12.72
		c-5.04-7.15-4.71-16.4301-6.99-24.4401c-10.52-5.25-23.12-7.97-30.75-17.61c3.92-49.52-6.92-98.8101-3.99-148.33
		c1.2-12.0601,4.04-23.9601,4.03-36.13c-0.13-18.77-3.8401-37.28-4.4401-56.01c-0.4299-13.79,4.02-27.39,2.25-41.17
		c-1.54-8.35-8.96-13.6-12.6799-20.84c-4.1101-8.05-1.87-17.8-6.12-25.79c-2.9301-5.9399-8.6101-10.24-10.4701-16.73
		c-3.49-11.5601-1.87-23.83-4.27-35.57c-6.7599-36.5-24.8899-69.29-39.74-102.89c-10.1899,23.28-8.25,49.28-6.6499,73.9901
		c3.2,46.46-9.3601,91.9299-12.3501,138.0399c-1.21,14.27-0.74,28.6001-1.0499,42.9c-0.4401,24.3101-0.8401,48.64-0.3401,72.9501
		c0.8301,28.46,2.5901,57.11,9.29,84.87c0.75,3.38,2.01,6.6499,2.51,10.1c0.42,1.4399-0.48,2.59-1.47,3.51
		c-2.54-0.8301-5.0801-1.7101-7.6801-2.23c1.3401,20.5499,12.13,38.7999,16.1801,58.75c1.54,7.46,1.63,15.2999-0.41,22.6699
		c-10.01,5.7201-22.0699,8.64-33.49,6.0601c-10.04-2.14-18.78-8.74-24.39-17.24c-1.22-1.9501-2.9-3.8301-2.96-6.23
		c-0.96-11.79-3.46-23.38-5.09-35.0701c-1.03-7-0.7101-14.66,3.63-20.5499c-2.77-1.04-6.5-0.55-8.3401-3.2401
		c-6.95-8.85-9.27-20.2699-10-31.24c-0.77-13.7-0.03-27.45-1.47-41.1c-6.3-50.13-9.15-100.6-11.38-151.04
		c-2.01-40.9399-2.84-81.9299-5.3-122.8399c-4.12-49.3199-14.8199-98.38-11.4199-148.1c0.53-12.53,2.08-25.08,5.9-37.06
		c1.2899-5.26,3.45-10.38,3.88-15.8c-4.9801-7.52-11.6101-13.74-17.8101-20.22c-11.17-11.25-22.34-22.74-30.67-36.32
		c-7.59-12.21-12.3899-26.17-13.5699-40.5099c-1.71-22.71,0.92-45.44,2.9-68.04c2.4099-23,3.46-46.17,7.2999-69.01
		c1.9-10.72,4.15-21.69,9.76-31.18c6.8-11.35,17.63-19.52,28.8201-26.24c10.5499-6.29,21.6699-11.53,32.4199-17.45
		C1279.2653,424.1558,1286.6353,419.0258,1294.4053,414.5758 M1357.3553,670.3958c-1.9501,12.49-5.5801,24.65-8.0601,37.05
		c13.21,2.45,26.66,1.22,40.01,1.47c-1.34-6.78-3-13.48-4.3-20.25c-0.75-5.8-1.0399-11.65-1.61-17.47
		c-4.6899,4.45-9.39,8.88-14.09,13.3C1365.2753,679.8358,1361.3453,675.0858,1357.3553,670.3958z"/>
	<path stroke="#000000" stroke-width="0.0938" d="M534.1953,458.2858c14.38-5.35,29.67-10.72,40.28-22.37
		c1.34,6.38,6.13,11.31,9.08,17.01c5.84,8.09,11.22,16.53,15.58,25.53c7.17,15.52,13.83,31.3,19.48,47.44
		c3.12,9.04,7.33,17.65,10.47,26.68c0.16-17.11-0.65-34.22-0.64-51.34c-0.2401-1.65,0.38-3.81-1.05-5.03
		c-4.45-3.89-9.53-7.12-13.15-11.87c5.38-5.41,10.83-10.76,16.18-16.21c3.58,0.89,7.09,2.14,10.43,3.73
		c2.53,2.39,4.84,5.03,7.08,7.71c1.1,2.25,1.16,4.91,1.4,7.39c-0.64,1.54-1.56,2.95-2.4,4.4c5.83,18.44,10.95,37.1,16.55,55.61
		c2.54,10.91,4.7,21.91,6.98,32.88c2.8,22.11,5.22,44.27,7.98,66.39c3.2599,18.95,6.22,37.94,8.87,56.98
		c1.04,5.41,1.25,10.91,1.43,16.41c1.33-0.39,2.67-0.79,4.02-1.15c0.15-7.09,0.47-14.17,0.7401-21.25
		c-1.12-23.99-2.38-47.98-3.63-71.97c-0.87-12.65-0.84-25.3101-0.87-37.98c-0.83-7.62-0.63-15.42-2.89-22.8
		c-5.32-20.12-10.29-40.36-16.77-60.14c-3.91-9.42-6.1-19.67-11.88-28.21c-2.01-3.39-4.03-6.77-6.09-10.11
		c-2.24-3.28-1.54-7.48-2-11.21c2.6,4.68,6.65,8.35,11.15,11.16c9.51,6,20.44,9.24,30.08,14.99c5.33,3.18,11.08,6.03,15.3,10.69
		c4.79,6.48,6.04,14.78,6.78,22.6c1.57,26.14-4.84,51.89-5.08,77.97c0.36,19.5,2.1,39.04,6.23,58.11
		c3.89,18.69,13.38,35.48,22.18,52.21c7.05,13.46,14.33,27.29,16.33,42.57c1.53,13.76,0.91,28.31-5.28,40.95
		c-4.25,8.88-11.56,16.07-20.25,20.61c-1.74,8.89-3.63,18.34-9.61,25.47c-1.62,1.97-4.05,4.04-6.79,3.34
		c-3.37-1.86-5.04-6.16-9.18-6.75c-4.89,9.1-4.45,19.81-2.47,29.65c1.78,10.41,4.7,21.5699,0.3701,31.77
		c-2.9,6.72-3.3701,14.06-4.14,21.25c-2.33,25.19-1.31,50.51-1.2,75.77c0.45,25.4-1.06,50.7599-2.18,76.1299
		c-0.82,12.38-1.47,24.8201-3.68,37.05c-2.58,14.53-5.68,29.0601-6.12,43.86c-0.64,21.88,4.48,43.3301,7.8,64.8201
		c2.17,13.62,4.11,27.34,4.2,41.1699c0.33,13.3401-0.61,26.7101,0.4,40.03c0.82,9.13,2.67,18.85,9.06,25.84
		c2.27,2.25,4.74,4.79,8.08,5.24c11.06,2.16,22.35,5.41,31.35,12.4801c5.91,4.5399,10.01,10.9399,13.06,17.6599
		c-2.67,4.8101-8.42,6.3401-13.31,7.87c-16.3,4.26-33.43,4.5-50.12,2.9301c-12.75-1.72-26.62-4.39-35.96-13.99
		c-6.96,2.89-14.59,3.99-22.08,3.15c-8.72-0.91-17.21-3.2301-25.8-4.88c3.83-22.89,4.35-46.25,2.46-69.3501
		c-2.65-36.84-10.99-72.9399-15.23-109.58c-6.39,0.01-12.78-0.02-19.17,0.02c4.68,34.16,13.69,67.92,13.51,102.62
		c-0.05,14.87-1.79,30.4-9.43,43.47c-1.2,2.26-3.29,4.03-4.14,6.47c0.27,5.17,3.63,9.7101,3.28,15
		c-0.43,12.4701-5.03,24.4601-4.79,37.01c-5.96,7.36-15.52,10.6001-24.63,11.75c-11.8,1.4301-24.46-0.3099-34.53-6.96
		c-1.01-9.14-3.82-18.52-1.17-27.63c2.02-7.23,8.98-12.34,9.24-20.16c0.13-7.5299-2.83-14.61-4.41-21.86
		c-2.61-10.89-1.78-22.3199-4.94-33.1c-3.81-13.5-10.69-26.04-13.21-39.9301c-4.33-24.6699,0.63-50.0699-4.77-74.6499
		c-37.8-0.04-75.61-0.01-113.42-0.01c0-72.4301,0-144.8599,0-217.28c22.86-0.01,45.71-0.05,68.56,0.02
		c5.2-12.52,14.64-22.95,18.37-36.1c2.24-7.5,1.49-15.47-0.47-22.92c0.88-35.7,1.6-71.41,1.5-107.12
		c0.01-28.33-0.3-56.69-2.16-84.97c-2.43-49.67-0.63-99.59,5.97-148.89c1.77-13.92,3.06-28.01,7.2-41.48
		c2.64-8.64,6.91-17.06,13.75-23.14C506.9353,468.3658,520.7953,463.3458,534.1953,458.2858 M469.6753,924.4658
		c0.19,4.48-2.11,8.35-3.87,12.3c-1.56,3.22-1.14,6.87-1.05,10.34c8.7-1.27,17.49,0.62,26.23-0.23c0.27-5.4,0.08-10.81,0.15-16.21
		c-2.8-0.2-5.34-1.28-7.15-3.45c-1.93,1.15-4.13,3.42-6.52,2.05C474.1353,928.3857,473.7553,922.9358,469.6753,924.4658z"/>
	<path stroke="#000000" stroke-width="0.0938" d="M891.3353,458.9558c9.56-3.11,18.58-7.92,26.46-14.18
		c0.57,18.16,2.01,36.31,1.64,54.49c-0.18,14.67-0.13,29.34-0.41,44c-0.8,13.39-0.46,26.87-2.54,40.15
		c-2.16,14.61-3.12,29.37-5.48,43.95c-2.2,17.16-4.15,34.42-3.54,51.75c31.02-8.48,62.05-16.93,93.09-25.34
		c-1.05-23.84-1.49-47.73-3.79-71.5c-1.4399-15.31-1.89-30.68-3.02-46.01c-1.22-13.8-0.34-27.67-0.72-41.5
		c-0.35-7.54-0.85-15.06-1.09-22.59c-0.36-7.49,0.56-15.09-1.23-22.46c7.3,8.5,17.83,13.25,28.1801,16.92
		c16.8699,5.88,34.46,10.17,50.39,18.41c25.48,29.55,50.86,59.23,76.61,88.56c10.8401,11.47,23.4601,21.6,31.53,35.38
		c4.52,7.69,7.17,16.92,5.25,25.81c-1.87,6.86-6.36,12.59-10.95,17.87c-7.26,8.06-15.51,15.13-23.3201,22.63
		c-13.8199,13.88-25.3199,30.3-41.5499,41.62c-3.55,2.27-7.0801,5.13-11.4601,5.39c-4.35,0.65-9,0.06-12.6699-2.46
		c-4.0801-2.74-6.7301-7.01-10.3301-10.27c2.99,18.97,16.8,33.33,24.0901,50.53c1.1599,2.55,2.0599,5.25,2.2699,8.07
		c7.5,67.49,21.13,134.16,27.53,201.78c-8.97,0.74-17.77,3.1801-25.73,7.4c-12.03,6.23-23.46,14.45-37.13,16.67
		c4.87,7.85,7.49,16.9099,8.54,26.0399c1.52,12.3699,1.1599,24.94,3.4,37.2299c3.9299,19.7101,15.48,36.7401,20.7999,56
		c9.37,34.52,8.39,70.64,13.86,105.79c2,11.36,3.9401,22.96,9.03,33.4301c8.0601,17.0499,20.8199,31.96,25.34,50.59
		c7.39,29.1801,7.51,59.49,8.8,89.38c-5.98,5.9399-14.66,8.26-22.91,7.98c-10.52-0.23-21.66-4.35-27.87-13.23
		c-4.49-6.38-4.65-14.55-4.21-22.03c1.08-14.0599,3.77-27.95,4.59-42.03c1.3101-18.4099-3.9299-36.5499-10.88-53.3899
		c-9.3099-22.29-22.54-42.64-32.62-64.55c-8.25-17.3-12.41-36.61-23.59-52.4401c-0.8201-0.87-1.3101-2.34-2.6-2.49
		c-8.41,17.16-19.0101,33.15-27.53,50.26c-9.12,17.9601-16.17,37.29-17.95,57.48c-2.86,26.9701,0.3,54.2401-3.46,81.14
		c-1.41,11-4.24,21.9-9.04,31.9301c-0.82,1.67-1.59,3.58-3.4,4.42c-9.04,5.1-20.14,5.62-30.04,3c-6.36-1.9-12.78-5.5801-15.72-11.8
		c-0.83-1.3101-0.15-2.79,0.09-4.12c11.11-44.3,24.63-87.96,35.7-132.27c16.8-65.92,27.14-134.05,23.64-202.22
		c0.0699-2.62-3.22-2.49-5.03-2.36c-8.64,1.2799-16.32,6.0399-24.98,7.3099c-26.66-71.1699-51.59-143.0699-72.01-216.2999
		c-1.25-0.61-2.55-1.35-3.98-1.17c-7.05,0.27-14.01,3.17-21.08,1.75c-2.02-0.52-4.8-1.58-4.82-4.04c-1.93-30.5,2.4-60.91,2.91-91.38
		c-6.46,25.32-10.24,51.3-11.43,77.4c-1.12,28.24,0.41,57.41,11.32,83.83c-1.86,2.79-6.61,3.92-8.99,1.12
		c-4.01-4.27-5.48-11.59-11.87-13.11c-5.89,14.38-1.27,31-8.56,44.96c-7.5-0.59-12.7-7.31-14.12-14.27
		c-3.62-16.89,0.48-34.18-1.18-51.21c-0.16-1.5-1.61-2.37-2.83-2.91c-3.97-1.55-8.44-0.95-12.38-2.57c-1.89-0.81-3.01-2.89-2.74-4.9
		c1.2-25.73,3.11-51.41,5-77.09c5.03-61.31,8.24-122.77,14.58-183.98c2.14-20.07,4.55-40.13,8.08-60.01
		c2.55-13.0699,5.02-26.3199,10.42-38.5699c2.11-4.41,4.7599-9.64,9.98-10.8C858.1353,465.8058,875.1553,464.1558,891.3353,458.9558
		 M1064.5253,582.5558c-2.15,2.67-3.21,6-4.73,9.04c-1.97,4.21-5.12,7.73-7.1899,11.88c-2.25,5.11-3.75,10.56-6.76,15.31
		c-3.53,5.13-4.2301,12.42-1.03,17.87c0.75,1.51,1.36,3.13,2.34,4.54c6.1801,5.6,13.5701,9.58,20.8101,13.6
		c5.13,3.9,10.75,7.14,15.5499,11.46c6.87-4.65,12.76-10.54,19.42-15.48c4.38-3.29,8.1-7.43,12.92-10.12
		c4.4099-2.88,10.0699-5.17,12-10.51c1.2699-4.86-0.8101-9.64-2.2001-14.21c-3.76-3.9-7.58-7.76-11.38-11.61
		c-6.5-4.34-13.5499-7.8-20.23-11.86c-7.45-4.21-14.64-9.09-22.79-11.87C1068.9553,580.5157,1066.0153,580.4958,1064.5253,582.5558z
		"/>
	<path stroke="#000000" stroke-width="0.0938" d="M40.0453,838.0558c7.13-6.93,17.67-8.41,27.19-7.74c6.1,0.27,12.31,2.2,16.65,6.66
		c-7.58,11.93-4.16,27.2-10.33,39.65c-1.63,3.41-4.69,5.84-8.13,7.29c-0.84-4.24-3.51-8.18-2.97-12.61c0.49-3.01,3.89-3.74,6.28-4.6
		c-4.73-2.4-3.58-8.56-3.69-12.91c-5.61,2.55-10.34,7.94-9.79,14.45c1.47,15.62,13.47,27.38,17.59,42.12
		c-6.77,2.2-13.76-0.64-19.55-4.08c-5.85-3.59-11.33-8-15.47-13.51c-3.06-3.86-3.16-8.99-4.56-13.53
		c-1.31-5.99-3.56-11.89-3.64-18.07C30.0353,852.1558,40.5653,847.2958,40.0453,838.0558z"/>
	<path stroke="#000000" stroke-width="0.0938" d="M361.4453,871.2258c8.71,1.2,17.66,0.62,26.22,2.86
		c2.25,7.18,7.13,13.49,7.78,21.15c0.72,11.66-2.76,23.75-10.36,32.74c-7.46,9.23-19.24,13.72-30.77,14.9
		c-4.48,0.2599-9.59,0.47-13.21-2.66c-1.8-3.7-1.8-8.84,1.53-11.69c4.94-4.55,12-5.68,17.12-9.97c3.98-3.17,5.27-8.48,5.74-13.31
		c0.12-8.9-5.72-16.11-9.8-23.52c-0.36-0.97-1.45-1.92-0.99-2.99C356.3353,875.7458,358.8253,873.3458,361.4453,871.2258z"/>
</g>
</svg>
